<svg width="400" height="367" viewBox="0 0 400 367" fill="none" xmlns="http://www.w3.org/2000/svg">
    <g clip-path="url(#clip0_26:36)">
        <path d="M256.271 292.463L260.115 301.082C256.99 300.585 254.085 303.253 254.019 306.68C253.954 310.107 256.741 313.672 259.865 314.159C259.268 316.819 256.691 317.992 254.455 319.068C252.218 320.143 249.807 321.926 249.973 324.761C250.107 327.038 251.989 329.047 253.988 329.855C255.987 330.663 258.084 330.539 260.109 330.403C257.041 333.613 256.742 339.644 259.436 343.972C262.13 348.299 267.511 350.43 271.539 348.764C268.693 352.305 269.311 358.789 272.844 362.444C276.405 366.127 281.566 366.484 286.078 366.096C297.568 365.125 308.516 360.786 317.552 353.623C321.001 350.882 324.223 347.659 326.191 343.454C328.159 339.249 328.738 333.926 326.906 329.141C327.4 335.135 333.399 339.869 338.796 340.134C344.193 340.399 348.905 337.359 352.91 333.892C358.235 329.282 363.165 322.82 362.434 314.847C362.073 310.9 360.349 307.104 358.658 303.427L355.38 296.298C354.056 293.42 352.703 290.494 350.711 288.079C348.719 285.663 345.954 283.794 343.187 283.812C343.82 280.921 344.456 277.924 343.925 274.853C343.395 271.782 341.365 268.603 338.604 267.884C335.091 266.969 332.113 270.211 328.58 269.905C325.18 269.611 322.37 266.199 319.068 264.847C317.709 264.259 316.208 264.08 314.748 264.333C313.289 264.585 311.935 265.258 310.852 266.268C308.759 268.311 307.886 271.763 308.637 275.03C309.295 277.891 311.046 280.415 312.109 283.175C313.172 285.934 313.337 289.483 311.296 290.99C308.833 292.808 305.084 290.334 303.159 287.34C301.235 284.346 300.13 280.72 297.697 278.202C294.825 275.231 290.329 274.534 287.372 276.603C284.415 278.672 283.285 283.305 284.775 287.243C285.994 290.463 288.786 293.72 287.818 296.752C286.794 299.957 282.316 299.551 279.615 297.286C276.913 295.022 275.119 291.61 272.451 289.294C269.741 286.943 266.202 285.912 263.095 286.57C261.519 286.936 260.061 287.693 258.854 288.771C257.648 289.849 256.732 291.213 256.192 292.738" fill="#E6E6E6" />
        <path d="M318.502 268.243L310.527 271.949C309.328 272.541 307.969 272.724 306.656 272.471C305.498 272.197 304.716 271.489 304.51 270.528L302.654 261.86C302.304 260.225 303.658 258.291 305.874 257.261L310.278 255.215C312.494 254.185 314.846 254.398 315.87 255.72L321.297 262.728C321.899 263.505 321.935 264.56 321.398 265.621C320.745 266.788 319.728 267.709 318.502 268.243Z" fill="#3F3D56" />
        <path d="M71.204 108.048C78.7018 87.5272 90.4025 68.7978 105.557 53.0598C118.414 39.7127 138.424 40.2673 138.424 40.2673L138.539 40.1255C143.354 34.1866 149.817 29.8022 157.115 27.5223C164.414 25.2424 172.223 25.1685 179.563 27.3099C181.471 27.8574 182.938 28.1001 183.636 27.8562C196.361 23.4028 195.763 13.3511 206.741 5.2535C225.964 -8.92493 289.723 7.31617 298.714 33.4062C306 54.5515 338.527 64.8005 350.679 80.975C352.579 83.504 354.443 86.0624 356.272 88.6501C357.129 89.8523 357.977 91.0636 358.815 92.2839C367.425 104.752 375.148 117.809 381.929 131.359C386.376 140.212 390.241 149.345 393.499 158.701C406.172 195.749 401.838 223.352 366.894 216.532C362.758 215.723 358.72 214.999 354.783 214.36C349.081 213.429 343.577 212.665 338.273 212.066C331.13 211.253 324.335 210.721 317.886 210.469C315.718 210.382 313.59 210.323 311.501 210.294C280.62 209.865 257.713 215.678 240.262 224.7C237.304 226.226 234.5 227.84 231.852 229.542C227.807 232.128 223.944 234.989 220.292 238.105C215.238 242.442 210.577 247.218 206.364 252.377L206.132 252.66C185.721 277.627 179.004 305.266 164.806 310.133C104.113 330.939 65.7271 255.515 61.7905 181.734C61.5918 178.016 61.482 174.308 61.4611 170.612C61.4488 168.96 61.4569 167.312 61.4855 165.668C61.5478 161.38 61.7368 157.12 62.0534 152.911C62.1716 151.302 62.3087 149.702 62.4647 148.109C62.6367 146.393 62.8237 144.686 63.0399 142.99C64.5839 130.558 67.2849 118.731 71.204 108.048Z" fill="url(#paint0_linear_26:36)" />
        <path d="M259.322 148.642C254.475 150.899 254.395 161.007 255.915 164.282L258.669 170.21L276.226 162.053L273.472 156.125C271.949 152.851 264.173 146.393 259.322 148.642Z" fill="#3F3D56" />
        <path d="M212.142 233.754C211.833 233.754 211.529 233.679 211.255 233.537C210.981 233.394 210.745 233.187 210.568 232.934C210.391 232.681 210.278 232.389 210.238 232.082C210.198 231.776 210.232 231.465 210.338 231.174C210.424 230.937 210.556 230.72 210.727 230.534C210.897 230.348 211.103 230.198 211.332 230.093L302.001 187.967C302.23 187.86 302.477 187.8 302.729 187.79C302.981 187.779 303.232 187.818 303.469 187.904C303.706 187.991 303.923 188.123 304.109 188.294C304.295 188.464 304.445 188.67 304.551 188.898C304.765 189.36 304.787 189.888 304.612 190.366C304.437 190.844 304.08 191.233 303.619 191.448H303.619L212.95 233.574C212.697 233.692 212.421 233.754 212.142 233.754Z" fill="#3F3D56" />
        <path d="M283.066 165.833L257.148 177.875L297.804 265.379L323.721 253.338L283.066 165.833Z" fill="#E6E6E6" />
        <path d="M185.774 55.6804C180.926 57.937 180.847 68.0449 182.366 71.3201L185.121 77.2482L202.678 69.091L199.923 63.1629C198.401 59.8891 190.624 53.4314 185.774 55.6804Z" fill="#3F3D56" />
        <path d="M294.377 278.303L286.402 282.008C285.203 282.6 283.843 282.784 282.531 282.53C281.373 282.256 280.59 281.548 280.385 280.587L278.529 271.92C278.179 270.285 279.533 268.35 281.749 267.321L286.153 265.274C288.369 264.245 290.721 264.458 291.744 265.78L297.172 272.788C297.774 273.565 297.81 274.619 297.273 275.681C296.62 276.848 295.603 277.768 294.377 278.303Z" fill="#3F3D56" />
        <path d="M269.857 290.468L261.882 294.174C260.683 294.766 259.323 294.949 258.01 294.696C256.853 294.422 256.07 293.714 255.865 292.753L254.009 284.085C253.658 282.45 255.013 280.516 257.229 279.486L261.633 277.44C263.849 276.41 266.201 276.623 267.224 277.945L272.652 284.953C273.254 285.73 273.29 286.785 272.753 287.846C272.1 289.013 271.083 289.934 269.857 290.468Z" fill="#3F3D56" />
        <path d="M216.433 87.7563L190.515 99.7979L272.696 276.677L298.613 264.636L216.433 87.7563Z" fill="#E6E6E6" />
        <path d="M243.324 178.937L240.416 172.538L242.09 171.766L244.99 178.145L286.972 271.231L285.3 272.008" fill="#3F3D56" />
        <path d="M276.125 173.618L273.217 167.219L274.891 166.447L277.79 172.826L319.773 265.912L318.101 266.689" fill="#3F3D56" />
        <path d="M228.666 101.912L193.549 118.227C191.313 114.749 184.573 96.9245 186.086 91.6361L184.95 86.5929L209.198 75.3271L212.444 79.3196C217.261 80.7979 226.64 97.54 228.666 101.912Z" fill="#E6E6E6" />
        <path d="M210.211 75.543L185.189 87.1685C184.266 87.5976 183.282 87.4399 182.992 86.8162C182.951 86.7263 182.925 86.6299 182.916 86.5312L181.621 72.7159C181.566 72.1244 182.072 71.454 182.845 71.0947L199.439 63.385C200.212 63.0257 201.051 63.0713 201.467 63.4952L211.19 73.3946C211.688 73.901 211.417 74.7677 210.587 75.3305C210.468 75.4112 210.342 75.4823 210.211 75.543Z" fill="#E6E6E6" />
        <path d="M229.837 183.781C229.566 183.781 229.296 183.749 229.033 183.686C228.662 183.609 228.313 183.448 228.014 183.215C227.714 182.983 227.472 182.685 227.305 182.345L212.008 149.419C211.375 148.056 212.225 146.312 213.902 145.533L236.303 135.125C237.981 134.345 239.861 134.82 240.494 136.183L255.792 169.11C255.945 169.456 256.016 169.834 256.001 170.212C255.986 170.591 255.884 170.961 255.703 171.294C255.31 172.049 254.674 172.648 253.897 172.995L231.497 183.403C230.978 183.648 230.411 183.777 229.837 183.781Z" fill="#3F3D56" />
        <path d="M232.9 188.765L206.983 200.806L247.638 288.31L273.556 276.269L232.9 188.765Z" fill="#E6E6E6" />
        <path d="M200.97 76.9863L193.37 80.5175C191.903 81.199 189.924 80.0635 188.96 77.9867C187.995 75.9099 188.403 73.6654 189.87 72.984L197.47 69.4527C198.937 68.7713 200.915 69.9068 201.88 71.9835C202.845 74.0603 202.437 76.3048 200.97 76.9863Z" fill="#3F3D56" />
        <path d="M209.663 171.338C204.815 173.595 204.736 183.703 206.256 186.978L209.01 192.906L226.567 184.749L223.812 178.821C222.29 175.547 214.513 169.089 209.663 171.338Z" fill="#3F3D56" />
        <path d="M129.147 151.162C127.435 152.302 125.683 149.588 127.428 148.498C129.139 147.357 130.891 150.072 129.147 151.162Z" fill="#E6E6E6" />
        <path d="M307.335 112.156C305.623 113.296 303.871 110.582 305.615 109.492C307.327 108.351 309.079 111.066 307.335 112.156Z" fill="#E6E6E6" />
        <path d="M185.883 143.183C184.171 144.324 182.419 141.609 184.164 140.519C185.876 139.379 187.628 142.094 185.883 143.183Z" fill="#E6E6E6" />
        <path d="M129.147 249.564C127.435 250.705 125.683 247.99 127.428 246.9C129.139 245.76 130.891 248.474 129.147 249.564Z" fill="#E6E6E6" />
        <path d="M216.468 27.4943C214.756 28.6348 213.004 25.9202 214.748 24.8302C216.46 23.6897 218.212 26.4044 216.468 27.4943Z" fill="#E6E6E6" />
        <path d="M132.25 79.7981C130.538 80.9387 128.786 78.224 130.53 77.1341C132.242 75.9935 133.994 78.7082 132.25 79.7981Z" fill="#E6E6E6" />
        <path d="M253.381 64.8036L252.292 64.5647L252.53 63.4752L251.804 63.3161L251.565 64.4056L250.476 64.1671L250.317 64.8932L251.406 65.1321L251.168 66.2212L251.894 66.3803L252.133 65.2908L253.222 65.5297L253.381 64.8036Z" fill="#E6E6E6" />
        <path d="M76.0365 155.572L74.9474 155.333L75.1859 154.244L74.4599 154.085L74.2209 155.174L73.1314 154.936L72.9723 155.662L74.0618 155.901L73.8233 156.99L74.5494 157.149L74.7883 156.06L75.8774 156.298L76.0365 155.572Z" fill="#E6E6E6" />
        <path d="M299.386 201.874C298.48 202.294 297.444 202.337 296.506 201.994C295.568 201.651 294.804 200.95 294.382 200.044L289.899 190.397C289.48 189.491 289.437 188.455 289.78 187.518C290.124 186.58 290.825 185.817 291.731 185.397C292.636 184.976 293.672 184.932 294.61 185.274C295.547 185.616 296.311 186.317 296.733 187.222L301.216 196.869C301.635 197.776 301.679 198.812 301.336 199.75C300.993 200.688 300.292 201.452 299.386 201.874Z" fill="#3F3D56" />
        <path d="M223.147 237.334C222.24 237.754 221.205 237.797 220.266 237.454C219.328 237.111 218.564 236.41 218.142 235.505L213.66 225.857C213.24 224.951 213.198 223.915 213.541 222.978C213.884 222.04 214.586 221.277 215.491 220.857C216.397 220.436 217.432 220.392 218.37 220.734C219.308 221.076 220.072 221.777 220.494 222.682L224.976 232.33C225.396 233.236 225.439 234.272 225.096 235.21C224.753 236.148 224.052 236.912 223.147 237.334Z" fill="#3F3D56" />
        <path d="M292.481 180.795L262.426 194.759C260.513 191.782 254.744 176.527 256.039 172L256.675 166.937L274.621 158.133L278.597 161.459C284.2 159.565 292.436 173.449 292.481 180.795Z" fill="#E6E6E6" />
        <path d="M278.528 179.827L270.927 183.358C269.46 184.039 267.229 182.359 265.953 179.614C264.677 176.868 264.833 174.079 266.299 173.397L273.9 169.866C275.366 169.185 277.598 170.865 278.874 173.61C280.15 176.356 279.994 179.145 278.528 179.827Z" fill="#3F3D56" />
        <path d="M214.07 197.997L211.161 191.598L212.836 190.826L215.735 197.205L257.718 290.291L256.045 291.068" fill="#3F3D56" />
        <path d="M242.822 203.491L212.766 217.455C208.332 215.166 201.556 200.185 206.38 194.697L207.016 189.633L224.961 180.829L228.938 184.155C233.061 185.421 241.088 199.749 242.822 203.491Z" fill="#E6E6E6" />
        <path d="M228.249 201.191L220.649 204.723C219.182 205.404 217.089 204.023 215.984 201.644C214.879 199.265 215.173 196.775 216.64 196.093L224.24 192.562C225.707 191.881 227.8 193.262 228.905 195.641C230.01 198.02 229.716 200.51 228.249 201.191Z" fill="#3F3D56" />
        <path d="M75.9255 136.453C101.14 136.453 121.581 116.013 121.581 90.7982C121.581 65.5835 101.14 45.1431 75.9255 45.1431C50.7109 45.1431 30.2704 65.5835 30.2704 90.7982C30.2704 116.013 50.7109 136.453 75.9255 136.453Z" fill="#FF6584" />
        <path opacity="0.3" d="M263.118 138.35L290.862 57.3193L260.397 137.38C260.246 137.57 260.143 137.793 260.096 138.031C260.049 138.269 260.059 138.515 260.126 138.748C260.192 138.981 260.314 139.195 260.48 139.372C260.646 139.549 260.851 139.683 261.08 139.765C261.308 139.846 261.553 139.872 261.793 139.84C262.034 139.808 262.263 139.719 262.462 139.581C262.661 139.443 262.825 139.259 262.939 139.045C263.053 138.831 263.114 138.592 263.117 138.35H263.118Z" fill="#F0F0F0" />
        <path d="M333.84 90.0504C328.409 91.8555 322.388 93.6286 315.777 95.3698C281.582 104.373 235.748 111.395 186.717 115.145C137.686 118.894 91.3168 118.921 56.1508 115.222C39.0203 113.42 25.4711 110.828 15.8796 107.518C5.72495 104.014 0.389153 99.7909 0.0202418 94.9675C-0.698157 85.5707 17.8446 77.3001 33.5266 72.0167L33.9513 73.2768C12.4158 80.5323 0.836492 88.1996 1.34632 94.8662C1.99538 103.357 22.0216 110.294 56.2899 113.899C91.3786 117.59 137.663 117.562 186.616 113.819C235.569 110.075 281.319 103.067 315.439 94.0838C348.76 85.3116 367.499 75.4099 366.85 66.9188C366.311 59.869 352.414 53.8382 327.72 49.9367L327.928 48.6234C345.871 51.4583 367.418 56.9158 368.176 66.8175C368.544 71.6409 363.913 76.6255 354.409 81.6328C348.991 84.487 342.108 87.3029 333.84 90.0504Z" fill="#3F3D56" />
        <path d="M347.256 171.024C349.876 171.024 352 168.9 352 166.28C352 163.66 349.876 161.537 347.256 161.537C344.636 161.537 342.512 163.66 342.512 166.28C342.512 168.9 344.636 171.024 347.256 171.024Z" fill="#FF6584" />
        <path d="M377.397 299.568C380.017 299.568 382.141 297.444 382.141 294.824C382.141 292.204 380.017 290.08 377.397 290.08C374.777 290.08 372.653 292.204 372.653 294.824C372.653 297.444 374.777 299.568 377.397 299.568Z" fill="#F2F2F2" />
        <path d="M215.61 328.452C220.718 328.452 224.859 324.311 224.859 319.203C224.859 314.095 220.718 309.954 215.61 309.954C210.502 309.954 206.361 314.095 206.361 319.203C206.361 324.311 210.502 328.452 215.61 328.452Z" fill="#F2F2F2" />
        <path d="M145.132 206.041C147.752 206.041 149.876 203.917 149.876 201.297C149.876 198.677 147.752 196.554 145.132 196.554C142.512 196.554 140.389 198.677 140.389 201.297C140.389 203.917 142.512 206.041 145.132 206.041Z" fill="#3F3D56" />
        <path d="M304.615 212.216L325.083 217.514L337.636 242.171L316.413 243.003L304.615 212.216Z" fill="#E6E6E6" />
        <path d="M257.373 176.669L268.638 187.94L297.248 249.799L291.981 254.349L257.373 176.669Z" fill="#CCCCCC" />
        <path d="M232.879 186.886L233.763 202.797L260.768 265.373L267.672 264.484L232.879 186.886Z" fill="#CCCCCC" />
        <path d="M232.142 251.164L221.119 269.205L229.245 295.653L245.075 281.493L232.142 251.164Z" fill="#E6E6E6" />
        <path d="M329.517 262.25C323.793 262.25 317.52 262.033 310.698 261.601C275.409 259.36 229.698 251.569 181.987 239.663C134.277 227.758 90.265 213.159 58.0603 198.558C42.3724 191.445 30.3321 184.713 22.2741 178.547C13.7428 172.019 10.011 166.329 11.1821 161.635C13.464 152.491 33.6688 150.491 50.2168 150.423L50.2224 151.753C27.4977 151.846 14.0912 155.47 12.4725 161.957C10.4106 170.22 27.2269 183.118 58.6094 197.347C90.7433 211.916 134.674 226.486 182.31 238.373C229.945 250.26 275.571 258.037 310.782 260.274C345.169 262.458 366.075 258.972 368.137 250.709C369.848 243.849 358.563 233.743 336.36 222.253L336.971 221.072C353.104 229.421 371.831 241.396 369.427 251.031C368.256 255.725 362.288 258.994 351.69 260.748C345.649 261.748 338.228 262.25 329.517 262.25Z" fill="#3F3D56" />
    </g>
    <defs>
        <linearGradient id="paint0_linear_26:36" x1="230.728" y1="0" x2="230.728" y2="313.642" gradientUnits="userSpaceOnUse">
            <stop stop-color="#00B2FF" />
            <stop offset="1" stop-color="#F9FAFB" />
        </linearGradient>
        <clipPath id="clip0_26:36">
            <rect width="400" height="366.219" fill="white" />
        </clipPath>
    </defs>
</svg>
    